<svg width="48" height="48" viewBox="0 0 48 48" fill="none" xmlns="http://www.w3.org/2000/svg">
<path d="M32 8H16C11.5817 8 8 11.5817 8 16V32C8 36.4183 11.5817 40 16 40H32C36.4183 40 40 36.4183 40 32V16C40 11.5817 36.4183 8 32 8Z" stroke="#868587" stroke-width="2" stroke-linecap="round" stroke-linejoin="round"/>
<path d="M30.4007 22.9925C30.5982 24.3241 30.3707 25.684 29.7507 26.8789C29.1307 28.0738 28.1497 29.0427 26.9473 29.648C25.7449 30.2532 24.3822 30.4638 23.0532 30.25C21.7241 30.0361 20.4963 29.4086 19.5444 28.4567C18.5926 27.5049 17.9651 26.2771 17.7512 24.948C17.5373 23.619 17.748 22.2563 18.3532 21.0539C18.9584 19.8514 19.9274 18.8705 21.1223 18.2505C22.3172 17.6305 23.6771 17.403 25.0087 17.6005C26.367 17.8019 27.6245 18.4348 28.5954 19.4058C29.5664 20.3767 30.1993 21.6342 30.4007 22.9925Z" stroke="#868587" stroke-width="2" stroke-linecap="round" stroke-linejoin="round"/>
<path d="M32.8008 15.1992H32.8177" stroke="#868587" stroke-width="2" stroke-linecap="round" stroke-linejoin="round"/>
</svg>
