<svg width="88" height="70" viewBox="0 0 88 70" fill="none" xmlns="http://www.w3.org/2000/svg">
<g id="logonu">
<path id="logonu-letter-u" d="M78.668 46.9974V19.7362C78.668 18.4089 77.9506 18.0005 76.9257 18.0005H71.1864C69.9566 18.0005 69.4441 18.4089 69.4441 19.7362V57.9225C69.4441 58.8414 67.6122 62.1796 62.4749 61.8025C52.7387 61.0878 46.9993 54.3438 46.9993 48.9375V19.7362C46.9993 18.6131 47.5118 18.0005 48.7416 18.0005H54.3784C55.6083 18.0005 56.1207 18.6131 56.1207 19.7362V46.6912C56.1207 49.746 59.1529 53.0216 62.4749 53.0216H72.7243C76.0039 53.0216 78.668 49.2436 78.668 46.9974Z" stroke="url(#paint0_linear_36_4539)" stroke-width="1.5"/>
<path id="logonu-letter-n" d="M8 23.8346V51.0958C8 52.4232 8.71739 52.8316 9.74226 52.8316H15.4816C16.7114 52.8316 17.2238 52.4232 17.2239 51.0958V12.9095C17.2239 11.9906 19.0558 8.65246 24.193 9.02957C33.9293 9.74428 39.6686 16.4882 39.6686 21.8946V51.0958C39.6686 52.219 39.1562 52.8316 37.9263 52.8316H32.2895C31.0597 52.8316 30.5473 52.219 30.5473 51.0958V24.1408C30.5473 21.086 27.5151 17.8105 24.193 17.8105H13.9436C10.664 17.8105 7.99999 21.5884 8 23.8346Z" stroke="url(#paint1_linear_36_4539)" stroke-width="1.5"/>
</g>
<defs>
<linearGradient id="paint0_linear_36_4539" x1="51.908" y1="55.9148" x2="80.4293" y2="32.1618" gradientUnits="userSpaceOnUse">
<stop stop-color="#A950C4"/>
<stop offset="1" stop-color="#82269E"/>
</linearGradient>
<linearGradient id="paint1_linear_36_4539" x1="34.76" y1="14.9173" x2="6.23866" y2="38.6702" gradientUnits="userSpaceOnUse">
<stop stop-color="#A950C4"/>
<stop offset="1" stop-color="#82269E"/>
</linearGradient>
</defs>
</svg>
